<?xml version="1.0" encoding="UTF-8"?>
<!DOCTYPE svg PUBLIC "-//W3C//DTD SVG 1.1//EN" "http://www.w3.org/Graphics/SVG/1.1/DTD/svg11.dtd">
<!-- Creator: CorelDRAW 2019 (64-Bit) -->
<svg xmlns="http://www.w3.org/2000/svg" xml:space="preserve" width="10.7172mm" height="10.7172mm" version="1.1" style="shape-rendering:geometricPrecision; text-rendering:geometricPrecision; image-rendering:optimizeQuality; fill-rule:evenodd; clip-rule:evenodd"
viewBox="0 0 129.41 129.41"
 xmlns:xlink="http://www.w3.org/1999/xlink"
 xmlns:xodm="http://www.corel.com/coreldraw/odm/2003">
 <defs>
  <style type="text/css">
   <![CDATA[
    .fil0 {fill:#25D266}
    .fil1 {fill:#FFFEFF}
   ]]>
  </style>
 </defs>
 <g id="Capa_x0020_1">
  <metadata id="CorelCorpID_0Corel-Layer"/>
  <g id="_5590473296">
   <path class="fil0" d="M-0 62.93c0,11.69 1.59,19.7 5.9,28.98 0.87,1.87 1.79,3.45 2.7,5.14 0.48,0.89 0.89,1.44 1.44,2.36 1.61,2.72 3.11,4.38 5.03,6.85 10.61,13.66 30.55,23.14 47.88,23.14 11.69,0 19.7,-1.59 28.98,-5.9 10.91,-5.06 18.92,-12.15 25.72,-21.55 2.27,-3.13 4.04,-6.24 5.79,-9.88 3.62,-7.54 5.58,-15.65 5.98,-23.82l0 -6.33c-0.77,-15.89 -7.33,-31.49 -18.89,-43.05 -3.27,-3.28 -8.95,-7.87 -13.29,-10.21 -1.79,-0.97 -3.25,-1.79 -5.13,-2.7 -7.79,-3.74 -16.46,-5.72 -25.19,-5.98l-4.04 0c-8.78,0.26 -17.5,2.25 -25.37,5.9 -6.11,2.83 -9.2,5.16 -14.35,9.16 -0.92,0.71 -1.33,1.24 -2.16,1.88 -3.39,2.59 -9.89,10.8 -12.3,15.25 -4.88,9.01 -8.68,18.59 -8.68,30.75z"/>
   <path class="fil1" d="M22.07 107.84l17.74 -4.58c5.64,-1.49 3.58,-1.55 8.51,0.56 11.67,4.99 26.18,4.35 36.96,-1.86 7.33,-4.22 12.54,-9.26 17.01,-17.11 6.09,-10.72 6.76,-25.69 1.71,-36.96 -7.2,-16.06 -22.92,-27.11 -42.34,-25.66 -28.93,2.15 -47.5,32.42 -35.63,59.66 2.1,4.83 2.4,2.5 0.86,8.19 -1.54,5.68 -3.61,12.08 -4.82,17.76z"/>
   <path class="fil0" d="M32.33 97.75c2.3,-0.41 4.84,-1.27 7.21,-1.86 1.16,-0.29 2.39,-0.62 3.6,-0.94 1.88,-0.5 2.03,-0.92 3.5,-0.06 14.29,8.33 30.52,5.96 41.58,-3.65 11.3,-9.83 15.16,-26.77 9.11,-40.71 -8.12,-18.71 -31.15,-26.82 -48.85,-17.21 -3.37,1.83 -8.11,5.37 -10.4,8.3 -2.82,3.61 -4.86,6.48 -6.68,11.77 -3.42,9.91 -2,21.05 3.42,29.83 1.41,2.29 0.86,1.82 -0.55,7.15 -0.55,2.09 -1.74,5.43 -1.94,7.38z"/>
   <path class="fil1" d="M48.97 45.12c-4.15,1.15 -7.41,8.51 -4.34,15.9 2.03,4.88 6.86,10.29 9.8,13.19 4.91,4.83 15.42,11.97 23.88,10.67 4.47,-0.69 8.28,-4.08 8.14,-9.06 -0.05,-1.72 -0.77,-1.51 -3.11,-2.72 -9.24,-4.79 -7.24,-4.05 -11.85,1.43 -0.54,0.65 -0.9,0.99 -2.1,0.68 -2.18,-0.57 -7.56,-4.01 -9.01,-5.44l-4.02 -4.57c-0.53,-0.72 -2.14,-2.73 -2.06,-3.77 0.19,-2.24 4.74,-3.14 2.91,-7.44 -0.6,-1.42 -2.91,-7.33 -3.51,-8.12 -0.79,-1.06 -3.27,-1.15 -4.75,-0.74z"/>
  </g>
 </g>
</svg>
